<svg xmlns="http://www.w3.org/2000/svg" width="19.479" height="19.479" viewBox="0 0 19.479 19.479">
  <g id="social-dribbble" transform="translate(-7.969 -10.404)">
    <path id="Path_441" data-name="Path 441" d="M9.74.229A9.733,9.733,0,0,1,2.863-2.634,9.733,9.733,0,0,1,0-9.51a9.733,9.733,0,0,1,2.863-6.877A9.733,9.733,0,0,1,9.74-19.25a9.733,9.733,0,0,1,6.877,2.863A9.733,9.733,0,0,1,19.479-9.51a9.733,9.733,0,0,1-2.863,6.877A9.733,9.733,0,0,1,9.74.229Zm8.218-8.408a12.038,12.038,0,0,0-1.722-.361,12.167,12.167,0,0,0-3.472,0,36.671,36.671,0,0,1,1.189,3.909q.371,1.607.428,2.026A8.106,8.106,0,0,0,16.73-4.993,8.536,8.536,0,0,0,17.957-8.179ZM12.992-1.844q-.1-.59-.5-2.292a35.655,35.655,0,0,0-1.265-4l-.057.019A12.686,12.686,0,0,0,6.192-5.031a8.243,8.243,0,0,0-1.55,2.1A8.675,8.675,0,0,0,7-1.645a8.019,8.019,0,0,0,2.739.466A8.471,8.471,0,0,0,12.992-1.844ZM3.557-3.937A13.9,13.9,0,0,1,5.4-6.277a12.263,12.263,0,0,1,4.927-3.158l.323-.1q-.323-.7-.685-1.408A29.083,29.083,0,0,1,4.28-9.872a24.434,24.434,0,0,1-2.853.114v.266a8.114,8.114,0,0,0,.561,3.015A8.392,8.392,0,0,0,3.557-3.937ZM1.6-11.2q.361.038,2.53-.114a30.842,30.842,0,0,0,5.155-.894q-1.065-1.883-1.969-3.215T6.2-17.024a8.3,8.3,0,0,0-2.977,2.349A8.237,8.237,0,0,0,1.6-11.2ZM7.8-17.6q.209.285,1.122,1.626T10.9-12.725a11.154,11.154,0,0,0,3.224-1.836,7.173,7.173,0,0,0,1.132-1.151,8.222,8.222,0,0,0-2.511-1.541,8.443,8.443,0,0,0-3.006-.571A8.285,8.285,0,0,0,7.8-17.6Zm8.389,2.834A8.83,8.83,0,0,1,14.942-13.5a12.688,12.688,0,0,1-3.415,2.026q.3.59.552,1.2l.19.418a17.907,17.907,0,0,1,3.824-.01,16.7,16.7,0,0,1,1.959.295,8.4,8.4,0,0,0-.5-2.806A8.159,8.159,0,0,0,16.188-14.761Z" transform="translate(7.969 29.654)" fill="#fff"/>
  </g>
</svg>
